<mxfile host="app.diagrams.net" modified="2023-02-14T16:23:32.687Z" agent="5.0 (X11; Linux x86_64) AppleWebKit/537.36 (KHTML, like Gecko) Chrome/110.0.0.0 Safari/537.36" etag="oV5J-gCnX57mFGlj0U8o" version="20.8.20" type="github">
  <diagram name="Página-1" id="NOlzApEavJSNyuDXf1zl">
    <mxGraphModel dx="1195" dy="646" grid="1" gridSize="10" guides="1" tooltips="1" connect="1" arrows="1" fold="1" page="1" pageScale="1" pageWidth="827" pageHeight="1169" math="0" shadow="0">
      <root>
        <mxCell id="0" />
        <mxCell id="1" parent="0" />
        <mxCell id="UTMe9Ehtoz6gK4HeQlnw-42" value="" style="group;fillColor=#dae8fc;strokeColor=#6c8ebf;" parent="1" vertex="1" connectable="0">
          <mxGeometry x="30" y="200" width="180" height="150" as="geometry" />
        </mxCell>
        <mxCell id="UTMe9Ehtoz6gK4HeQlnw-35" value="Catálogo de Produtos" style="swimlane;fontStyle=0;childLayout=stackLayout;horizontal=1;startSize=30;horizontalStack=0;resizeParent=1;resizeParentMax=0;resizeLast=0;collapsible=1;marginBottom=0;whiteSpace=wrap;html=1;fillColor=#dae8fc;strokeColor=#6c8ebf;" parent="UTMe9Ehtoz6gK4HeQlnw-42" vertex="1">
          <mxGeometry width="180" height="120" as="geometry">
            <mxRectangle width="160" height="30" as="alternateBounds" />
          </mxGeometry>
        </mxCell>
        <mxCell id="UTMe9Ehtoz6gK4HeQlnw-36" value="Categorias de produtos" style="text;strokeColor=#6c8ebf;fillColor=#DDEDFD;align=left;verticalAlign=middle;spacingLeft=4;spacingRight=4;overflow=hidden;points=[[0,0.5],[1,0.5]];portConstraint=eastwest;rotatable=0;whiteSpace=wrap;html=1;" parent="UTMe9Ehtoz6gK4HeQlnw-35" vertex="1">
          <mxGeometry y="30" width="180" height="30" as="geometry" />
        </mxCell>
        <mxCell id="UTMe9Ehtoz6gK4HeQlnw-37" value="Acesso a catálogo de produtos" style="text;strokeColor=#6c8ebf;fillColor=#DDEDFD;align=left;verticalAlign=middle;spacingLeft=4;spacingRight=4;overflow=hidden;points=[[0,0.5],[1,0.5]];portConstraint=eastwest;rotatable=0;whiteSpace=wrap;html=1;" parent="UTMe9Ehtoz6gK4HeQlnw-35" vertex="1">
          <mxGeometry y="60" width="180" height="30" as="geometry" />
        </mxCell>
        <mxCell id="UTMe9Ehtoz6gK4HeQlnw-38" value="Pesquisa de produtos" style="text;strokeColor=#6c8ebf;fillColor=#DDEDFD;align=left;verticalAlign=middle;spacingLeft=4;spacingRight=4;overflow=hidden;points=[[0,0.5],[1,0.5]];portConstraint=eastwest;rotatable=0;whiteSpace=wrap;html=1;" parent="UTMe9Ehtoz6gK4HeQlnw-35" vertex="1">
          <mxGeometry y="90" width="180" height="30" as="geometry" />
        </mxCell>
        <mxCell id="UTMe9Ehtoz6gK4HeQlnw-40" value="Produtos" style="text;strokeColor=#6c8ebf;fillColor=#dae8fc;align=left;verticalAlign=middle;spacingLeft=4;spacingRight=4;overflow=hidden;points=[[0,0.5],[1,0.5]];portConstraint=eastwest;rotatable=0;whiteSpace=wrap;html=1;" parent="UTMe9Ehtoz6gK4HeQlnw-42" vertex="1">
          <mxGeometry y="120" width="180" height="30" as="geometry" />
        </mxCell>
        <mxCell id="UTMe9Ehtoz6gK4HeQlnw-52" value="" style="group;fillColor=#ffe6cc;strokeColor=#d79b00;" parent="1" vertex="1" connectable="0">
          <mxGeometry x="30" y="395" width="180" height="240" as="geometry" />
        </mxCell>
        <mxCell id="UTMe9Ehtoz6gK4HeQlnw-44" value="Info Produto" style="swimlane;fontStyle=0;childLayout=stackLayout;horizontal=1;startSize=30;horizontalStack=0;resizeParent=1;resizeParentMax=0;resizeLast=0;collapsible=1;marginBottom=0;whiteSpace=wrap;html=1;fillColor=#ffe6cc;strokeColor=#d79b00;" parent="UTMe9Ehtoz6gK4HeQlnw-52" vertex="1">
          <mxGeometry width="180" height="120" as="geometry" />
        </mxCell>
        <mxCell id="UTMe9Ehtoz6gK4HeQlnw-45" value="Nome Produto" style="text;strokeColor=#d79b00;fillColor=#ffe6cc;align=left;verticalAlign=middle;spacingLeft=4;spacingRight=4;overflow=hidden;points=[[0,0.5],[1,0.5]];portConstraint=eastwest;rotatable=0;whiteSpace=wrap;html=1;" parent="UTMe9Ehtoz6gK4HeQlnw-44" vertex="1">
          <mxGeometry y="30" width="180" height="30" as="geometry" />
        </mxCell>
        <mxCell id="UTMe9Ehtoz6gK4HeQlnw-46" value="Descrição de Produto" style="text;strokeColor=#d79b00;fillColor=#ffe6cc;align=left;verticalAlign=middle;spacingLeft=4;spacingRight=4;overflow=hidden;points=[[0,0.5],[1,0.5]];portConstraint=eastwest;rotatable=0;whiteSpace=wrap;html=1;" parent="UTMe9Ehtoz6gK4HeQlnw-44" vertex="1">
          <mxGeometry y="60" width="180" height="30" as="geometry" />
        </mxCell>
        <mxCell id="UTMe9Ehtoz6gK4HeQlnw-47" value="Documentação do Produto" style="text;strokeColor=#d79b00;fillColor=#ffe6cc;align=left;verticalAlign=middle;spacingLeft=4;spacingRight=4;overflow=hidden;points=[[0,0.5],[1,0.5]];portConstraint=eastwest;rotatable=0;whiteSpace=wrap;html=1;" parent="UTMe9Ehtoz6gK4HeQlnw-44" vertex="1">
          <mxGeometry y="90" width="180" height="30" as="geometry" />
        </mxCell>
        <mxCell id="UTMe9Ehtoz6gK4HeQlnw-48" value="Imagens do Produto" style="text;strokeColor=#d79b00;fillColor=#ffe6cc;align=left;verticalAlign=middle;spacingLeft=4;spacingRight=4;overflow=hidden;points=[[0,0.5],[1,0.5]];portConstraint=eastwest;rotatable=0;whiteSpace=wrap;html=1;" parent="UTMe9Ehtoz6gK4HeQlnw-52" vertex="1">
          <mxGeometry y="120" width="180" height="30" as="geometry" />
        </mxCell>
        <mxCell id="UTMe9Ehtoz6gK4HeQlnw-49" value="Lista de Peças" style="text;strokeColor=#d79b00;fillColor=#ffe6cc;align=left;verticalAlign=middle;spacingLeft=4;spacingRight=4;overflow=hidden;points=[[0,0.5],[1,0.5]];portConstraint=eastwest;rotatable=0;whiteSpace=wrap;html=1;" parent="UTMe9Ehtoz6gK4HeQlnw-52" vertex="1">
          <mxGeometry y="150" width="180" height="30" as="geometry" />
        </mxCell>
        <mxCell id="UTMe9Ehtoz6gK4HeQlnw-50" value="Desenho Técnico" style="text;strokeColor=#d79b00;fillColor=#ffe6cc;align=left;verticalAlign=middle;spacingLeft=4;spacingRight=4;overflow=hidden;points=[[0,0.5],[1,0.5]];portConstraint=eastwest;rotatable=0;whiteSpace=wrap;html=1;" parent="UTMe9Ehtoz6gK4HeQlnw-52" vertex="1">
          <mxGeometry y="180" width="180" height="30" as="geometry" />
        </mxCell>
        <mxCell id="UTMe9Ehtoz6gK4HeQlnw-51" value="Informação Geral" style="text;strokeColor=#d79b00;fillColor=#ffe6cc;align=left;verticalAlign=middle;spacingLeft=4;spacingRight=4;overflow=hidden;points=[[0,0.5],[1,0.5]];portConstraint=eastwest;rotatable=0;whiteSpace=wrap;html=1;" parent="UTMe9Ehtoz6gK4HeQlnw-52" vertex="1">
          <mxGeometry y="210" width="180" height="30" as="geometry" />
        </mxCell>
        <mxCell id="UTMe9Ehtoz6gK4HeQlnw-72" value="Forum" style="swimlane;fontStyle=0;childLayout=stackLayout;horizontal=1;startSize=30;horizontalStack=0;resizeParent=1;resizeParentMax=0;resizeLast=0;collapsible=1;marginBottom=0;whiteSpace=wrap;html=1;fillColor=#e1d5e7;strokeColor=#9673a6;" parent="1" vertex="1">
          <mxGeometry x="610" y="200" width="190" height="120" as="geometry" />
        </mxCell>
        <mxCell id="UTMe9Ehtoz6gK4HeQlnw-73" value="Lista de produtos com mais tópicos" style="text;strokeColor=#9673a6;fillColor=#e1d5e7;align=left;verticalAlign=middle;spacingLeft=4;spacingRight=4;overflow=hidden;points=[[0,0.5],[1,0.5]];portConstraint=eastwest;rotatable=0;whiteSpace=wrap;html=1;" parent="UTMe9Ehtoz6gK4HeQlnw-72" vertex="1">
          <mxGeometry y="30" width="190" height="30" as="geometry" />
        </mxCell>
        <mxCell id="UTMe9Ehtoz6gK4HeQlnw-74" value="Lista de tópicos do utilizador" style="text;strokeColor=#9673a6;fillColor=#e1d5e7;align=left;verticalAlign=middle;spacingLeft=4;spacingRight=4;overflow=hidden;points=[[0,0.5],[1,0.5]];portConstraint=eastwest;rotatable=0;whiteSpace=wrap;html=1;" parent="UTMe9Ehtoz6gK4HeQlnw-72" vertex="1">
          <mxGeometry y="60" width="190" height="30" as="geometry" />
        </mxCell>
        <mxCell id="UTMe9Ehtoz6gK4HeQlnw-75" value="Pesquisa de tópicos" style="text;strokeColor=#9673a6;fillColor=#e1d5e7;align=left;verticalAlign=middle;spacingLeft=4;spacingRight=4;overflow=hidden;points=[[0,0.5],[1,0.5]];portConstraint=eastwest;rotatable=0;whiteSpace=wrap;html=1;" parent="UTMe9Ehtoz6gK4HeQlnw-72" vertex="1">
          <mxGeometry y="90" width="190" height="30" as="geometry" />
        </mxCell>
        <mxCell id="UTMe9Ehtoz6gK4HeQlnw-81" value="" style="group;fillColor=#f8cecc;strokeColor=#b85450;" parent="1" vertex="1" connectable="0">
          <mxGeometry x="605" y="380" width="200" height="150" as="geometry" />
        </mxCell>
        <mxCell id="UTMe9Ehtoz6gK4HeQlnw-76" value="Tópico" style="swimlane;fontStyle=0;childLayout=stackLayout;horizontal=1;startSize=30;horizontalStack=0;resizeParent=1;resizeParentMax=0;resizeLast=0;collapsible=1;marginBottom=0;whiteSpace=wrap;html=1;fillColor=#f8cecc;strokeColor=#b85450;" parent="UTMe9Ehtoz6gK4HeQlnw-81" vertex="1">
          <mxGeometry width="200" height="120" as="geometry" />
        </mxCell>
        <mxCell id="UTMe9Ehtoz6gK4HeQlnw-77" value="Responder a tópico" style="text;strokeColor=#b85450;fillColor=#f8cecc;align=left;verticalAlign=middle;spacingLeft=4;spacingRight=4;overflow=hidden;points=[[0,0.5],[1,0.5]];portConstraint=eastwest;rotatable=0;whiteSpace=wrap;html=1;" parent="UTMe9Ehtoz6gK4HeQlnw-76" vertex="1">
          <mxGeometry y="30" width="200" height="30" as="geometry" />
        </mxCell>
        <mxCell id="UTMe9Ehtoz6gK4HeQlnw-78" value="Indicar melhor resposta" style="text;strokeColor=#b85450;fillColor=#f8cecc;align=left;verticalAlign=middle;spacingLeft=4;spacingRight=4;overflow=hidden;points=[[0,0.5],[1,0.5]];portConstraint=eastwest;rotatable=0;whiteSpace=wrap;html=1;" parent="UTMe9Ehtoz6gK4HeQlnw-76" vertex="1">
          <mxGeometry y="60" width="200" height="30" as="geometry" />
        </mxCell>
        <mxCell id="UTMe9Ehtoz6gK4HeQlnw-79" value="Lista de respostas mais recentes" style="text;strokeColor=#b85450;fillColor=#f8cecc;align=left;verticalAlign=middle;spacingLeft=4;spacingRight=4;overflow=hidden;points=[[0,0.5],[1,0.5]];portConstraint=eastwest;rotatable=0;whiteSpace=wrap;html=1;" parent="UTMe9Ehtoz6gK4HeQlnw-76" vertex="1">
          <mxGeometry y="90" width="200" height="30" as="geometry" />
        </mxCell>
        <mxCell id="UTMe9Ehtoz6gK4HeQlnw-80" value="Melhor resposta atual" style="text;strokeColor=#b85450;fillColor=#f8cecc;align=left;verticalAlign=middle;spacingLeft=4;spacingRight=4;overflow=hidden;points=[[0,0.5],[1,0.5]];portConstraint=eastwest;rotatable=0;whiteSpace=wrap;html=1;" parent="UTMe9Ehtoz6gK4HeQlnw-81" vertex="1">
          <mxGeometry y="120" width="200" height="30" as="geometry" />
        </mxCell>
        <mxCell id="KPAShtpmKhu_t8zkzfi4-2" value="" style="group" vertex="1" connectable="0" parent="1">
          <mxGeometry x="336" y="30" width="180" height="123" as="geometry" />
        </mxCell>
        <mxCell id="UTMe9Ehtoz6gK4HeQlnw-55" value="" style="group;fillColor=#f5f5f5;fontColor=#333333;strokeColor=#666666;" parent="KPAShtpmKhu_t8zkzfi4-2" vertex="1" connectable="0">
          <mxGeometry width="180" height="90" as="geometry" />
        </mxCell>
        <mxCell id="UTMe9Ehtoz6gK4HeQlnw-31" value="Home" style="swimlane;fontStyle=0;childLayout=stackLayout;horizontal=1;startSize=30;horizontalStack=0;resizeParent=1;resizeParentMax=0;resizeLast=0;collapsible=1;marginBottom=0;whiteSpace=wrap;html=1;fillColor=#f5f5f5;strokeColor=#666666;fontColor=#333333;" parent="UTMe9Ehtoz6gK4HeQlnw-55" vertex="1">
          <mxGeometry width="180" height="57" as="geometry" />
        </mxCell>
        <mxCell id="UTMe9Ehtoz6gK4HeQlnw-32" value="Catálogo" style="text;strokeColor=#666666;fillColor=#f5f5f5;align=left;verticalAlign=middle;spacingLeft=4;spacingRight=4;overflow=hidden;points=[[0,0.5],[1,0.5]];portConstraint=eastwest;rotatable=0;whiteSpace=wrap;html=1;fontColor=#333333;" parent="UTMe9Ehtoz6gK4HeQlnw-31" vertex="1">
          <mxGeometry y="30" width="180" height="27" as="geometry" />
        </mxCell>
        <mxCell id="UTMe9Ehtoz6gK4HeQlnw-33" value="Forum" style="text;strokeColor=#666666;fillColor=#f5f5f5;align=left;verticalAlign=middle;spacingLeft=4;spacingRight=4;overflow=hidden;points=[[0,0.5],[1,0.5]];portConstraint=eastwest;rotatable=0;whiteSpace=wrap;html=1;fontColor=#333333;" parent="UTMe9Ehtoz6gK4HeQlnw-55" vertex="1">
          <mxGeometry y="57" width="180" height="33" as="geometry" />
        </mxCell>
        <mxCell id="KPAShtpmKhu_t8zkzfi4-1" value="Logout" style="text;strokeColor=#666666;fillColor=#f5f5f5;align=left;verticalAlign=middle;spacingLeft=4;spacingRight=4;overflow=hidden;points=[[0,0.5],[1,0.5]];portConstraint=eastwest;rotatable=0;whiteSpace=wrap;html=1;fontColor=#333333;" vertex="1" parent="KPAShtpmKhu_t8zkzfi4-2">
          <mxGeometry y="90" width="180" height="33" as="geometry" />
        </mxCell>
        <mxCell id="KPAShtpmKhu_t8zkzfi4-17" value="" style="group" vertex="1" connectable="0" parent="1">
          <mxGeometry x="344" y="416" width="156" height="120" as="geometry" />
        </mxCell>
        <mxCell id="KPAShtpmKhu_t8zkzfi4-11" value="Registo" style="swimlane;fontStyle=0;childLayout=stackLayout;horizontal=1;startSize=30;horizontalStack=0;resizeParent=1;resizeParentMax=0;resizeLast=0;collapsible=1;marginBottom=0;whiteSpace=wrap;html=1;fillColor=#d5e8d4;strokeColor=#82b366;container=0;" vertex="1" parent="KPAShtpmKhu_t8zkzfi4-17">
          <mxGeometry width="156" height="120" as="geometry" />
        </mxCell>
        <mxCell id="KPAShtpmKhu_t8zkzfi4-12" value="Número de Contribuinte" style="text;strokeColor=#82b366;fillColor=#d5e8d4;align=left;verticalAlign=middle;spacingLeft=4;spacingRight=4;overflow=hidden;points=[[0,0.5],[1,0.5]];portConstraint=eastwest;rotatable=0;whiteSpace=wrap;html=1;container=0;" vertex="1" parent="KPAShtpmKhu_t8zkzfi4-17">
          <mxGeometry y="30" width="156" height="30" as="geometry" />
        </mxCell>
        <mxCell id="KPAShtpmKhu_t8zkzfi4-13" value="Email" style="text;strokeColor=#82b366;fillColor=#d5e8d4;align=left;verticalAlign=middle;spacingLeft=4;spacingRight=4;overflow=hidden;points=[[0,0.5],[1,0.5]];portConstraint=eastwest;rotatable=0;whiteSpace=wrap;html=1;container=0;" vertex="1" parent="KPAShtpmKhu_t8zkzfi4-17">
          <mxGeometry y="60" width="156" height="30" as="geometry" />
        </mxCell>
        <mxCell id="KPAShtpmKhu_t8zkzfi4-14" value="Password" style="text;strokeColor=#82b366;fillColor=#d5e8d4;align=left;verticalAlign=middle;spacingLeft=4;spacingRight=4;overflow=hidden;points=[[0,0.5],[1,0.5]];portConstraint=eastwest;rotatable=0;whiteSpace=wrap;html=1;container=0;" vertex="1" parent="KPAShtpmKhu_t8zkzfi4-17">
          <mxGeometry y="90" width="156" height="30" as="geometry" />
        </mxCell>
        <mxCell id="KPAShtpmKhu_t8zkzfi4-19" value="" style="group" vertex="1" connectable="0" parent="1">
          <mxGeometry x="344" y="221" width="156" height="150" as="geometry" />
        </mxCell>
        <mxCell id="KPAShtpmKhu_t8zkzfi4-3" value="Login" style="swimlane;fontStyle=0;childLayout=stackLayout;horizontal=1;startSize=30;horizontalStack=0;resizeParent=1;resizeParentMax=0;resizeLast=0;collapsible=1;marginBottom=0;whiteSpace=wrap;html=1;fillColor=#d5e8d4;strokeColor=#82b366;container=0;" vertex="1" parent="KPAShtpmKhu_t8zkzfi4-19">
          <mxGeometry width="156" height="120" as="geometry">
            <mxRectangle width="70" height="30" as="alternateBounds" />
          </mxGeometry>
        </mxCell>
        <mxCell id="KPAShtpmKhu_t8zkzfi4-7" value="Registo" style="text;strokeColor=#82b366;fillColor=#d5e8d4;align=left;verticalAlign=middle;spacingLeft=4;spacingRight=4;overflow=hidden;points=[[0,0.5],[1,0.5]];portConstraint=eastwest;rotatable=0;whiteSpace=wrap;html=1;container=0;" vertex="1" parent="KPAShtpmKhu_t8zkzfi4-19">
          <mxGeometry y="120" width="156" height="30" as="geometry" />
        </mxCell>
        <mxCell id="KPAShtpmKhu_t8zkzfi4-4" value="Email" style="text;strokeColor=#82b366;fillColor=#d5e8d4;align=left;verticalAlign=middle;spacingLeft=4;spacingRight=4;overflow=hidden;points=[[0,0.5],[1,0.5]];portConstraint=eastwest;rotatable=0;whiteSpace=wrap;html=1;container=0;" vertex="1" parent="KPAShtpmKhu_t8zkzfi4-19">
          <mxGeometry y="30" width="156" height="30" as="geometry" />
        </mxCell>
        <mxCell id="KPAShtpmKhu_t8zkzfi4-5" value="Password" style="text;strokeColor=#82b366;fillColor=#d5e8d4;align=left;verticalAlign=middle;spacingLeft=4;spacingRight=4;overflow=hidden;points=[[0,0.5],[1,0.5]];portConstraint=eastwest;rotatable=0;whiteSpace=wrap;html=1;container=0;" vertex="1" parent="KPAShtpmKhu_t8zkzfi4-19">
          <mxGeometry y="60" width="156" height="30" as="geometry" />
        </mxCell>
        <mxCell id="KPAShtpmKhu_t8zkzfi4-6" value="Recuperação de Password" style="text;strokeColor=#82b366;fillColor=#d5e8d4;align=left;verticalAlign=middle;spacingLeft=4;spacingRight=4;overflow=hidden;points=[[0,0.5],[1,0.5]];portConstraint=eastwest;rotatable=0;whiteSpace=wrap;html=1;container=0;" vertex="1" parent="KPAShtpmKhu_t8zkzfi4-19">
          <mxGeometry y="90" width="156" height="30" as="geometry" />
        </mxCell>
        <mxCell id="KPAShtpmKhu_t8zkzfi4-20" style="edgeStyle=orthogonalEdgeStyle;rounded=0;orthogonalLoop=1;jettySize=auto;html=1;exitX=0;exitY=0.5;exitDx=0;exitDy=0;entryX=0.5;entryY=0;entryDx=0;entryDy=0;" edge="1" parent="1" source="UTMe9Ehtoz6gK4HeQlnw-32" target="UTMe9Ehtoz6gK4HeQlnw-35">
          <mxGeometry relative="1" as="geometry" />
        </mxCell>
        <mxCell id="KPAShtpmKhu_t8zkzfi4-21" style="edgeStyle=orthogonalEdgeStyle;rounded=0;orthogonalLoop=1;jettySize=auto;html=1;exitX=1;exitY=0.5;exitDx=0;exitDy=0;entryX=0.5;entryY=0;entryDx=0;entryDy=0;" edge="1" parent="1" source="UTMe9Ehtoz6gK4HeQlnw-33" target="UTMe9Ehtoz6gK4HeQlnw-72">
          <mxGeometry relative="1" as="geometry" />
        </mxCell>
        <mxCell id="KPAShtpmKhu_t8zkzfi4-22" value="" style="endArrow=classic;html=1;rounded=0;entryX=0.5;entryY=0;entryDx=0;entryDy=0;exitX=0.475;exitY=1.017;exitDx=0;exitDy=0;exitPerimeter=0;" edge="1" parent="1" source="KPAShtpmKhu_t8zkzfi4-26" target="KPAShtpmKhu_t8zkzfi4-3">
          <mxGeometry width="50" height="50" relative="1" as="geometry">
            <mxPoint x="422" y="190" as="sourcePoint" />
            <mxPoint x="424" y="200" as="targetPoint" />
          </mxGeometry>
        </mxCell>
        <mxCell id="KPAShtpmKhu_t8zkzfi4-23" value="" style="endArrow=classic;html=1;rounded=0;entryX=0.5;entryY=0;entryDx=0;entryDy=0;" edge="1" parent="1" target="UTMe9Ehtoz6gK4HeQlnw-44">
          <mxGeometry width="50" height="50" relative="1" as="geometry">
            <mxPoint x="120" y="350" as="sourcePoint" />
            <mxPoint x="140" y="360" as="targetPoint" />
          </mxGeometry>
        </mxCell>
        <mxCell id="KPAShtpmKhu_t8zkzfi4-24" value="" style="endArrow=classic;html=1;rounded=0;exitX=0.5;exitY=1;exitDx=0;exitDy=0;entryX=0.5;entryY=0;entryDx=0;entryDy=0;" edge="1" parent="1" source="UTMe9Ehtoz6gK4HeQlnw-72" target="UTMe9Ehtoz6gK4HeQlnw-76">
          <mxGeometry width="50" height="50" relative="1" as="geometry">
            <mxPoint x="740" y="380" as="sourcePoint" />
            <mxPoint x="790" y="330" as="targetPoint" />
          </mxGeometry>
        </mxCell>
        <mxCell id="KPAShtpmKhu_t8zkzfi4-25" value="" style="endArrow=classic;html=1;rounded=0;entryX=0.5;entryY=0;entryDx=0;entryDy=0;" edge="1" parent="1" target="KPAShtpmKhu_t8zkzfi4-11">
          <mxGeometry width="50" height="50" relative="1" as="geometry">
            <mxPoint x="422" y="371" as="sourcePoint" />
            <mxPoint x="560" y="371" as="targetPoint" />
          </mxGeometry>
        </mxCell>
        <mxCell id="KPAShtpmKhu_t8zkzfi4-26" value="Login" style="text;strokeColor=#666666;fillColor=#f5f5f5;align=left;verticalAlign=middle;spacingLeft=4;spacingRight=4;overflow=hidden;points=[[0,0.5],[1,0.5]];portConstraint=eastwest;rotatable=0;whiteSpace=wrap;html=1;fontColor=#333333;" vertex="1" parent="1">
          <mxGeometry x="336" y="153" width="180" height="33" as="geometry" />
        </mxCell>
      </root>
    </mxGraphModel>
  </diagram>
</mxfile>
